<svg id="visual" viewBox="0 0 960 540" width="960" height="540" xmlns="http://www.w3.org/2000/svg" xmlns:xlink="http://www.w3.org/1999/xlink" version="1.1"><rect x="0" y="0" width="960" height="540" fill="#000000"></rect><defs><linearGradient id="grad1_0" x1="43.8%" y1="0%" x2="100%" y2="100%"><stop offset="14.444444444444446%" stop-color="#0060f1" stop-opacity="1"></stop><stop offset="85.55555555555554%" stop-color="#0060f1" stop-opacity="1"></stop></linearGradient></defs><defs><linearGradient id="grad1_1" x1="43.8%" y1="0%" x2="100%" y2="100%"><stop offset="14.444444444444446%" stop-color="#0060f1" stop-opacity="1"></stop><stop offset="85.55555555555554%" stop-color="#002eb0" stop-opacity="1"></stop></linearGradient></defs><defs><linearGradient id="grad1_2" x1="43.8%" y1="0%" x2="100%" y2="100%"><stop offset="14.444444444444446%" stop-color="#000000" stop-opacity="1"></stop><stop offset="85.55555555555554%" stop-color="#002eb0" stop-opacity="1"></stop></linearGradient></defs><defs><linearGradient id="grad2_0" x1="0%" y1="0%" x2="56.3%" y2="100%"><stop offset="14.444444444444446%" stop-color="#0060f1" stop-opacity="1"></stop><stop offset="85.55555555555554%" stop-color="#0060f1" stop-opacity="1"></stop></linearGradient></defs><defs><linearGradient id="grad2_1" x1="0%" y1="0%" x2="56.3%" y2="100%"><stop offset="14.444444444444446%" stop-color="#002eb0" stop-opacity="1"></stop><stop offset="85.55555555555554%" stop-color="#0060f1" stop-opacity="1"></stop></linearGradient></defs><defs><linearGradient id="grad2_2" x1="0%" y1="0%" x2="56.3%" y2="100%"><stop offset="14.444444444444446%" stop-color="#002eb0" stop-opacity="1"></stop><stop offset="85.55555555555554%" stop-color="#000000" stop-opacity="1"></stop></linearGradient></defs><g transform="translate(960, 0)"><path d="M0 189C-17.1 187.6 -34.2 186.3 -47.9 178.7C-61.5 171.1 -71.7 157.4 -87 150.7C-102.3 144 -122.9 144.3 -133.6 133.6C-144.4 123 -145.5 101.3 -145.5 84C-145.5 66.7 -144.6 53.9 -151.7 40.6C-158.7 27.4 -173.9 13.7 -189 0L0 0Z" fill="#001a91"></path><path d="M0 126C-11.4 125.1 -22.8 124.2 -31.9 119.1C-41 114.1 -47.8 104.9 -58 100.5C-68.2 96 -81.9 96.2 -89.1 89.1C-96.3 82 -97 67.5 -97 56C-97 44.5 -96.4 35.9 -101.1 27.1C-105.8 18.2 -115.9 9.1 -126 0L0 0Z" fill="#0046d0"></path><path d="M0 63C-5.7 62.5 -11.4 62.1 -16 59.6C-20.5 57 -23.9 52.5 -29 50.2C-34.1 48 -41 48.1 -44.5 44.5C-48.1 41 -48.5 33.8 -48.5 28C-48.5 22.2 -48.2 18 -50.6 13.5C-52.9 9.1 -58 4.6 -63 0L0 0Z" fill="#0060f1"></path></g><g transform="translate(0, 540)"><path d="M0 -189C10.9 -168.6 21.8 -148.2 39.3 -146.8C56.9 -145.5 81.2 -163.2 90.5 -156.8C99.8 -150.3 94.2 -119.8 108.2 -108.2C122.2 -96.5 155.8 -103.7 163.7 -94.5C171.5 -85.3 153.7 -59.6 153.6 -41.2C153.5 -22.7 171.3 -11.3 189 0L0 0Z" fill="#001a91"></path><path d="M0 -126C7.3 -112.4 14.5 -98.8 26.2 -97.9C37.9 -97 54.1 -108.8 60.3 -104.5C66.5 -100.2 62.8 -79.9 72.1 -72.1C81.5 -64.4 103.9 -69.1 109.1 -63C114.4 -56.9 102.4 -39.8 102.4 -27.4C102.3 -15.1 114.2 -7.6 126 0L0 0Z" fill="#0046d0"></path><path d="M0 -63C3.6 -56.2 7.3 -49.4 13.1 -48.9C19 -48.5 27.1 -54.4 30.2 -52.3C33.3 -50.1 31.4 -39.9 36.1 -36.1C40.7 -32.2 51.9 -34.6 54.6 -31.5C57.2 -28.4 51.2 -19.9 51.2 -13.7C51.2 -7.6 57.1 -3.8 63 0L0 0Z" fill="#0060f1"></path></g></svg>