<?xml version="1.0" standalone="no"?>
<svg xmlns:xlink="http://www.w3.org/1999/xlink" id="wave" style="transform:rotate(0deg); transition: 0.3s" viewBox="0 0 1440 490" version="1.1" xmlns="http://www.w3.org/2000/svg"><defs><linearGradient id="sw-gradient-0" x1="0" x2="0" y1="1" y2="0"><stop stop-color="rgba(255, 255, 255, 1)" offset="0%"/><stop stop-color="rgba(255, 255, 255, 1)" offset="100%"/></linearGradient></defs><path style="transform:translate(0, 0px); opacity:1" fill="url(#sw-gradient-0)" d="M0,392L48,400.2C96,408,192,425,288,383.8C384,343,480,245,576,236.8C672,229,768,310,864,318.5C960,327,1056,261,1152,212.3C1248,163,1344,131,1440,138.8C1536,147,1632,196,1728,220.5C1824,245,1920,245,2016,261.3C2112,278,2208,310,2304,294C2400,278,2496,212,2592,163.3C2688,114,2784,82,2880,81.7C2976,82,3072,114,3168,106.2C3264,98,3360,49,3456,89.8C3552,131,3648,261,3744,326.7C3840,392,3936,392,4032,343C4128,294,4224,196,4320,130.7C4416,65,4512,33,4608,32.7C4704,33,4800,65,4896,106.2C4992,147,5088,196,5184,179.7C5280,163,5376,82,5472,49C5568,16,5664,33,5760,49C5856,65,5952,82,6048,73.5C6144,65,6240,33,6336,73.5C6432,114,6528,229,6624,236.8C6720,245,6816,147,6864,98L6912,49L6912,490L6864,490C6816,490,6720,490,6624,490C6528,490,6432,490,6336,490C6240,490,6144,490,6048,490C5952,490,5856,490,5760,490C5664,490,5568,490,5472,490C5376,490,5280,490,5184,490C5088,490,4992,490,4896,490C4800,490,4704,490,4608,490C4512,490,4416,490,4320,490C4224,490,4128,490,4032,490C3936,490,3840,490,3744,490C3648,490,3552,490,3456,490C3360,490,3264,490,3168,490C3072,490,2976,490,2880,490C2784,490,2688,490,2592,490C2496,490,2400,490,2304,490C2208,490,2112,490,2016,490C1920,490,1824,490,1728,490C1632,490,1536,490,1440,490C1344,490,1248,490,1152,490C1056,490,960,490,864,490C768,490,672,490,576,490C480,490,384,490,288,490C192,490,96,490,48,490L0,490Z"/></svg>